<svg width="392" height="107" viewBox="0 0 392 107" fill="none" xmlns="http://www.w3.org/2000/svg">
<path d="M121.51 79.7803H115V27.8919H121.223V36.1251C122.18 34.3061 123.329 32.6786 124.765 31.3383C126.201 29.9023 127.924 28.8492 129.839 27.9876C131.754 27.2217 133.86 26.743 136.062 26.743C138.838 26.743 141.327 27.3175 143.625 28.2748C145.922 29.3279 147.933 30.7639 149.656 32.6786C151.379 34.5933 152.72 36.6995 153.677 39.1886C154.634 41.6777 155.113 44.2626 155.113 47.1346C155.113 50.0067 154.634 52.5915 153.677 55.0806C152.72 57.5697 151.379 59.7716 149.656 61.5906C147.933 63.4096 145.922 64.9413 143.625 65.9944C141.327 67.0475 138.838 67.5262 136.062 67.5262C133.956 67.5262 131.945 67.1432 129.935 66.3774C128.02 65.6115 126.297 64.5584 124.765 63.2181C123.233 61.8778 122.084 60.2503 121.127 58.3356L121.223 62.6437V79.7803H121.51ZM135.104 61.6863C137.019 61.6863 138.742 61.3034 140.37 60.6333C141.997 59.9631 143.433 58.91 144.678 57.6655C145.922 56.4209 146.976 54.8891 147.646 53.0702C148.412 51.3469 148.699 49.3365 148.699 47.2303C148.699 45.1242 148.316 43.2095 147.646 41.4862C146.976 39.763 145.922 38.2312 144.678 36.9867C143.433 35.7421 141.997 34.689 140.37 34.0189C138.742 33.3488 136.923 32.9658 135.104 32.9658C133.19 32.9658 131.466 33.3488 129.743 34.0189C128.116 34.7848 126.68 35.7421 125.435 37.0824C124.191 38.4227 123.233 39.9545 122.563 41.6777C121.893 43.4009 121.51 45.3156 121.51 47.2303C121.51 49.2408 121.893 51.1555 122.563 52.9744C123.233 54.6977 124.286 56.2294 125.531 57.5697C126.775 58.8143 128.211 59.8674 129.935 60.6333C131.562 61.3034 133.285 61.6863 135.104 61.6863Z" fill="white"/>
<path d="M169.539 66.6646H162.934V27.9877H169.252V36.6038C170.209 33.9232 171.741 31.8171 173.752 30.2853C175.762 28.7535 178.251 27.9877 181.028 27.9877H184.761V33.7318H181.315C179.113 33.7318 177.007 34.3062 175.188 35.455C173.369 36.6038 172.028 38.3271 170.975 40.529C169.922 42.7309 169.444 45.4114 169.444 48.475V66.6646H169.539Z" fill="white"/>
<path d="M194.039 20.329C192.699 20.329 191.646 19.946 190.784 19.0844C190.018 18.3185 189.635 17.2654 189.635 16.1166C189.635 14.9678 190.018 14.0104 190.784 13.2446C191.55 12.4787 192.699 12 194.039 12C195.379 12 196.528 12.3829 197.294 13.2446C198.06 14.0104 198.443 15.0635 198.443 16.1166C198.443 17.2654 198.06 18.3185 197.294 19.0844C196.528 19.946 195.379 20.329 194.039 20.329ZM197.294 66.6647H190.784V27.9878H197.294V66.6647Z" fill="white"/>
<path d="M224.339 66.6646H218.116L202.416 27.9877H209.308L220.222 55.2722L221.18 58.7186L222.041 55.2722L232.955 27.9877H239.944L224.339 66.6646Z" fill="white"/>
<path d="M280.727 46.2733V47.3264C280.727 47.7093 280.727 48.2837 280.631 48.9538H248.56C248.847 51.5387 249.613 53.7406 250.857 55.6553C252.102 57.57 253.634 59.006 255.548 60.0591C257.463 61.1122 259.378 61.5909 261.58 61.5909C264.165 61.5909 266.367 61.0165 268.281 59.8676C270.1 58.7188 271.44 57.0913 272.302 54.8894H279.674C279.099 56.6127 278.238 58.3359 277.185 59.8676C276.036 61.3994 274.791 62.7397 273.164 63.8885C271.632 65.0373 269.813 65.899 267.898 66.5691C265.984 67.2392 263.877 67.5264 261.675 67.5264C258.899 67.5264 256.314 66.952 253.921 65.9947C251.528 65.0373 249.421 63.5056 247.698 61.5909C245.879 59.6762 244.539 57.57 243.486 55.0809C242.528 52.5918 242.05 49.9112 242.05 47.1349C242.05 44.3586 242.528 41.678 243.486 39.1889C244.443 36.6998 245.879 34.4979 247.698 32.6789C249.517 30.7642 251.528 29.3282 253.921 28.2751C256.314 27.222 258.899 26.6476 261.675 26.6476C264.452 26.6476 267.037 27.1263 269.334 28.1793C271.632 29.2324 273.738 30.6685 275.366 32.4874C277.089 34.3064 278.429 36.4126 279.291 38.7102C280.344 41.1993 280.727 43.6884 280.727 46.2733ZM248.847 43.2097H274.121C274.025 41.8695 273.642 40.5292 272.972 39.2846C272.302 38.0401 271.345 36.987 270.196 36.0296C269.047 35.0723 267.707 34.3064 266.271 33.8277C264.835 33.2533 263.207 32.9661 261.58 32.9661C259.665 32.9661 257.846 33.349 256.027 34.1149C254.304 34.8808 252.772 36.0296 251.528 37.5614C250.283 39.0931 249.326 41.0078 248.847 43.2097Z" fill="white"/>
<path d="M294.387 66.6646H287.782V27.9877H294.1V36.6038C295.058 33.9232 296.589 31.8171 298.6 30.2853C300.61 28.7535 303.099 27.9877 305.876 27.9877H309.609V33.7318H306.163C303.961 33.7318 301.855 34.3062 300.036 35.455C298.217 36.6038 296.877 38.3271 295.824 40.529C294.77 42.7309 294.292 45.4114 294.292 48.475V66.6646H294.387Z" fill="white"/>
<path d="M331.055 67.718C328.374 67.718 325.885 67.1435 323.683 66.1862C321.385 65.1331 319.471 63.6971 317.747 61.7824C316.024 59.8677 314.78 57.7615 313.822 55.2724C312.865 52.7833 312.386 50.1027 312.386 47.3264C312.386 44.5501 312.865 41.8695 313.822 39.3804C314.78 36.8913 316.12 34.6894 317.747 32.8704C319.471 30.9557 321.385 29.5197 323.683 28.4666C325.981 27.4135 328.374 26.9348 331.055 26.9348C333.352 26.9348 335.554 27.3178 337.565 28.0836C339.575 28.8495 341.298 29.9026 342.83 31.3386C344.362 32.7747 345.511 34.4022 346.468 36.3169V27.9879H352.691V66.6649H346.468V58.4316C345.606 60.3464 344.362 61.9739 342.83 63.4099C341.298 64.8459 339.575 65.899 337.565 66.6649C335.554 67.335 333.352 67.718 331.055 67.718ZM332.491 61.5909C334.405 61.5909 336.129 61.208 337.852 60.5378C339.479 59.7719 340.915 58.8146 342.16 57.4743C343.404 56.134 344.362 54.698 345.128 52.879C345.798 51.1558 346.181 49.2411 346.181 47.2307C346.181 45.2202 345.798 43.4012 345.128 41.678C344.457 39.9548 343.404 38.423 342.16 37.0827C340.915 35.7424 339.479 34.7851 337.852 34.0192C336.224 33.2533 334.501 32.9661 332.586 32.9661C330.672 32.9661 328.948 33.3491 327.225 34.0192C325.598 34.6894 324.162 35.7424 322.821 36.987C321.577 38.2316 320.619 39.7633 319.854 41.4865C319.183 43.2098 318.8 45.1245 318.8 47.2307C318.8 49.3368 319.183 51.3473 319.854 53.0705C320.619 54.7937 321.577 56.3255 322.821 57.57C324.066 58.8146 325.502 59.7719 327.225 60.5378C328.948 61.3037 330.672 61.5909 332.491 61.5909Z" fill="white"/>
<path d="M376.491 67.7179C373.81 67.7179 371.417 67.3349 369.406 66.6648C367.396 65.8989 365.673 64.9415 364.332 63.7927C362.992 62.5482 361.939 61.1121 361.269 59.5804C360.599 58.0486 360.312 56.4211 360.312 54.7936H366.63C366.63 56.2297 367.013 57.4742 367.779 58.623C368.545 59.7719 369.694 60.7292 371.13 61.3993C372.566 62.0695 374.385 62.4524 376.491 62.4524C379.459 62.4524 381.66 61.878 383.096 60.7292C384.628 59.5804 385.298 58.0486 385.298 56.0382C385.298 54.6022 384.915 53.4533 384.15 52.6875C383.384 51.8258 382.235 51.2514 380.799 50.7728C379.363 50.2941 377.64 49.9111 375.629 49.6239C373.81 49.3367 372.087 48.9538 370.459 48.4751C368.832 47.9964 367.396 47.3263 366.151 46.4647C364.907 45.6031 363.854 44.4542 363.184 43.1139C362.418 41.7737 362.13 40.1462 362.13 38.2315C362.13 36.1253 362.609 34.2106 363.662 32.4874C364.715 30.7641 366.247 29.4238 368.258 28.3707C370.364 27.3177 372.853 26.839 375.916 26.839C378.98 26.839 381.469 27.3177 383.767 28.3707C385.969 29.3281 387.692 30.7641 388.936 32.4874C390.181 34.2106 390.851 36.221 390.851 38.5187H384.437C384.341 36.6997 383.575 35.1679 382.043 34.0191C380.607 32.8703 378.501 32.2959 375.916 32.2959C374.289 32.2959 372.853 32.5831 371.8 33.0618C370.747 33.5404 369.885 34.3063 369.311 35.1679C368.736 36.0296 368.449 36.9869 368.449 38.04C368.449 39.2846 368.736 40.2419 369.311 41.0078C369.885 41.7737 370.842 42.4438 372.183 42.9225C373.523 43.4012 375.438 43.8798 377.831 44.2628C379.554 44.55 381.373 44.9329 383.001 45.3159C384.724 45.7945 386.256 46.3689 387.596 47.2306C388.936 47.9964 389.989 49.1453 390.851 50.4856C391.617 51.8258 392 53.5491 392 55.6552C392 58.3358 391.33 60.5377 389.989 62.261C388.649 63.9842 386.83 65.4202 384.533 66.2818C382.235 67.2392 379.554 67.7179 376.491 67.7179Z" fill="white"/>
<path d="M54.0674 57.0092L0 0V60.3197L17.8553 79.1056H17.8401L43.491 106.134V90.0475L33.1121 79.1189L54.0674 57.0092ZM11.7617 56.5306V28.6243L38.7954 57.0092L25.5141 71.0222L11.7617 56.5306Z" fill="white"/>
<path d="M93.0001 0.0133057V60.3197L50.0562 105.536V89.3295L81.1168 56.5439V28.6243L58.3988 52.5155L50.6944 44.472L93.0001 0.0133057Z" fill="white"/>
</svg>
